<svg xmlns="http://www.w3.org/2000/svg" xmlns:xlink="http://www.w3.org/1999/xlink" viewBox="0 0 166.74 157.47"><defs><style>.a{fill:url(#a);}.b{fill:url(#b);}.c{fill:url(#c);}</style><radialGradient id="a" cx="116.54" cy="108.25" r="49.71" gradientUnits="userSpaceOnUse"><stop offset="0" stop-color="#e5e2df"/><stop offset="0.15" stop-color="#f1efee"/><stop offset="0.29" stop-color="#fff"/><stop offset="0.37" stop-color="#f0f1f1"/><stop offset="0.54" stop-color="#c9cccd"/><stop offset="0.77" stop-color="#8b9193"/><stop offset="1" stop-color="#465053"/></radialGradient><radialGradient id="b" cx="83.37" cy="59.05" r="54.38" xlink:href="#a"/><radialGradient id="c" cx="58.73" cy="109.21" r="53.75" xlink:href="#a"/></defs><path class="a" d="M166.74,108.36a48.82,48.82,0,0,1-6.65,24.5c-16.19,28-53,32.09-75.27,12.27-.49-.43-1-.86-1.44-1.31a50.53,50.53,0,0,0,8.51-11l8.53-14.75a19.68,19.68,0,1,0,17-29.53H83.38L66.33,59h51.14A49.58,49.58,0,0,1,131.21,61c.62.18,1.24.39,1.86.6A49.53,49.53,0,0,1,166.74,108.36Z"/><path class="b" d="M131.62,59c-.13.64-.26,1.28-.41,1.92A49.58,49.58,0,0,0,117.47,59h-17a19.34,19.34,0,0,0,2.66-9.8A19.69,19.69,0,1,0,66.33,59l17,29.54-17,29.53-17-29.53L40.76,73.82A49.66,49.66,0,0,1,35.55,61c-.17-.64-.3-1.28-.44-1.92a48.39,48.39,0,0,1-1-9.76C34.12,23.59,54.65,0,83.38,0,115.72,0,137.68,29.89,131.62,59Z"/><path class="c" d="M117.47,88.58l-17,29.53-8.53,14.75a50.53,50.53,0,0,1-8.51,11c-.47.45-1,.88-1.45,1.31A49.26,49.26,0,0,1,6.67,132.86c-16.18-28-1.27-62,27-71.3.62-.21,1.24-.42,1.88-.6a49.66,49.66,0,0,0,5.21,12.86l8.53,14.76a19.69,19.69,0,1,0,17,29.53l17-29.53Z"/></svg>