<svg xmlns="http://www.w3.org/2000/svg" xmlns:xlink="http://www.w3.org/1999/xlink" viewBox="0 0 723.79 157.47"><defs><style>.a{fill:url(#a);}.b{fill:url(#b);}.c{fill:url(#c);}.d{fill:#414042;}</style><radialGradient id="a" cx="116.54" cy="108.25" r="49.71" gradientUnits="userSpaceOnUse"><stop offset="0.3" stop-color="#f7941d"/><stop offset="0.45" stop-color="#ef752d"/><stop offset="0.7" stop-color="#e44547"/><stop offset="0.89" stop-color="#dd2756"/><stop offset="1" stop-color="#da1c5c"/></radialGradient><radialGradient id="b" cx="83.37" cy="59.05" r="54.38" xlink:href="#a"/><radialGradient id="c" cx="58.73" cy="109.21" r="53.75" xlink:href="#a"/></defs><path class="a" d="M166.74,108.36a48.82,48.82,0,0,1-6.65,24.5c-16.19,28-53,32.09-75.27,12.27-.49-.43-1-.86-1.44-1.31a50.53,50.53,0,0,0,8.51-11l8.53-14.75a19.68,19.68,0,1,0,17-29.53H83.38L66.33,59h51.14A49.58,49.58,0,0,1,131.21,61c.62.18,1.24.39,1.86.6A49.53,49.53,0,0,1,166.74,108.36Z"/><path class="b" d="M131.62,59c-.13.64-.26,1.28-.41,1.92A49.58,49.58,0,0,0,117.47,59h-17a19.34,19.34,0,0,0,2.66-9.8A19.69,19.69,0,1,0,66.33,59l17,29.54-17,29.53-17-29.53L40.76,73.82A49.66,49.66,0,0,1,35.55,61c-.17-.64-.3-1.28-.44-1.92a48.39,48.39,0,0,1-1-9.76C34.12,23.59,54.65,0,83.38,0,115.72,0,137.68,29.89,131.62,59Z"/><path class="c" d="M117.47,88.58l-17,29.53-8.53,14.75a50.53,50.53,0,0,1-8.51,11c-.47.45-1,.88-1.45,1.31A49.26,49.26,0,0,1,6.67,132.86c-16.18-28-1.27-62,27-71.3.62-.21,1.24-.42,1.88-.6a49.66,49.66,0,0,0,5.21,12.86l8.53,14.76a19.69,19.69,0,1,0,17,29.53l17-29.53Z"/><path class="d" d="M211.92,77.65V88.58h7.32v4h-7.32V121a10.22,10.22,0,0,0,1.05,5.25,3.75,3.75,0,0,0,3.5,1.72,18.25,18.25,0,0,0,3.17-.4l.12,4a11.15,11.15,0,0,1-4.32.67q-7.73,0-7.92-10.62V92.54h-6.61v-4h6.61V77.65Z"/><path class="d" d="M233.22,95.32A16,16,0,0,1,238,89.83a11.33,11.33,0,0,1,6.67-2q11.21,0,11.49,14.93v28.72h-4.36V103.2q0-5.74-2-8.48T243.6,92a8.81,8.81,0,0,0-6.2,2.59,16.32,16.32,0,0,0-4.18,7.11v29.75h-4.39V70.6h4.39Z"/><path class="d" d="M284.63,92.7a16.83,16.83,0,0,0-2.77-.28,8.3,8.3,0,0,0-6.12,2.5,14,14,0,0,0-3.5,6.93v29.59h-4.4V88.58h4.32l.08,6.42q3.12-7.22,9.82-7.21a5.4,5.4,0,0,1,2.65.52Z"/><path class="d" d="M306.5,132.23c-5.05,0-9-1.65-11.85-4.95s-4.3-8-4.35-14.1V108q0-9.42,4.12-14.79a13.48,13.48,0,0,1,11.32-5.37q7,0,10.64,4.55t3.74,14v4.12H294.65v2.41q0,7.37,3.15,11.37a10.65,10.65,0,0,0,8.89,4A12.79,12.79,0,0,0,317,123.55l2.3,2.94Q315,132.22,306.5,132.23Zm-.76-40.32a9.44,9.44,0,0,0-8,3.66q-2.79,3.68-3.07,10.72h21v-1.15Q315.4,91.91,305.74,91.91Z"/><path class="d" d="M343.61,132.23c-5.05,0-9-1.65-11.85-4.95s-4.3-8-4.35-14.1V108q0-9.42,4.12-14.79a13.48,13.48,0,0,1,11.32-5.37q7,0,10.64,4.55t3.74,14v4.12H331.76v2.41q0,7.37,3.15,11.37a10.66,10.66,0,0,0,8.89,4,12.79,12.79,0,0,0,10.26-4.64l2.3,2.94Q352.16,132.22,343.61,132.23Zm-.76-40.32a9.45,9.45,0,0,0-8,3.66q-2.79,3.68-3.07,10.72h21v-1.15Q352.51,91.91,342.85,91.91Z"/><path class="d" d="M375.33,88.58l.32,4a12.08,12.08,0,0,1,9.94-4.75,9.25,9.25,0,0,1,9.07,5.78,11.74,11.74,0,0,1,10.49-5.78q11.25,0,11.53,15.57v28.08H405.47V104.07q0-3.72-1-5.31A3.85,3.85,0,0,0,401,97.18q-3.13,0-4.68,3.84l.08,1.35v29.07H385.15V104.15a10.79,10.79,0,0,0-1-5.33,3.77,3.77,0,0,0-3.52-1.64q-2.89,0-4.6,3.13v31.13h-11.2V88.58Z"/><path class="d" d="M423.65,108.62q0-9.74,4.6-15.28T441,87.79q8.19,0,12.79,5.55t4.6,15.36v2.74q0,9.78-4.56,15.28T441,132.23q-8.24,0-12.82-5.53t-4.57-15.34Zm11.25,2.82q0,11.48,6.14,11.48,5.65,0,6.1-9.58l0-4.72c0-3.9-.55-6.8-1.63-8.69A5,5,0,0,0,441,97.1a4.93,4.93,0,0,0-4.46,2.83q-1.61,2.83-1.6,8.69Z"/><path class="d" d="M475.57,88.58l.32,4.24a11.91,11.91,0,0,1,9.94-5q11.06,0,11.37,15.49v28.16H486V104.11q0-3.64-1.09-5.29A4.25,4.25,0,0,0,481,97.18a5.22,5.22,0,0,0-4.75,3.13v31.13H465V88.58Z"/><path class="d" d="M519.46,114.92l-3,3.37v13.15H505.24V70.6h11.21v32.87l1.38-2,7.77-12.84h13.34l-12.43,17.67,13.62,25.19H527.3Z"/><path class="d" d="M561.36,132.23q-8.64,0-13.47-5.15t-4.83-14.73v-3.41q0-10.14,4.44-15.64t12.71-5.51q8.09,0,12.16,5.16t4.16,15.29v5.49h-22.3c.16,3.19.86,5.51,2.1,7s3.16,2.21,5.74,2.21a12.61,12.61,0,0,0,9.39-3.84l4.4,6.77a14.61,14.61,0,0,1-6,4.62A20.66,20.66,0,0,1,561.36,132.23Zm-7.05-26.3h11.21v-1a12,12,0,0,0-1.27-5.82,4.4,4.4,0,0,0-4.12-2,4.65,4.65,0,0,0-4.25,2.1Q554.55,101.3,554.31,105.93Z"/><path class="d" d="M596.61,112.78l5.7-24.2h12l-14.1,49.27q-3.18,10.89-11.93,10.89a16.68,16.68,0,0,1-4.59-.75v-8.75l1.31,0a6.48,6.48,0,0,0,3.94-1,6.34,6.34,0,0,0,2-3.51l.87-2.89L579.42,88.58h12Z"/><path class="d" d="M638,120a3.49,3.49,0,0,0-1.37-2.63,26.44,26.44,0,0,0-6.08-3.27q-6.93-2.82-9.52-5.82a11.07,11.07,0,0,1-2.6-7.49,12,12,0,0,1,4.06-9.29q4.07-3.66,10.76-3.66,7.05,0,11.28,3.64a12.25,12.25,0,0,1,4.24,9.79H637.6q0-5.23-4.35-5.23a4,4,0,0,0-2.93,1.11,4.08,4.08,0,0,0-1.15,3.09,3.23,3.23,0,0,0,1.26,2.51,27.91,27.91,0,0,0,6,3.11q6.84,2.53,9.68,5.65a11.47,11.47,0,0,1,2.83,8.05,11.26,11.26,0,0,1-4.32,9.23q-4.3,3.49-11.32,3.49a18,18,0,0,1-8.32-1.84,13.94,13.94,0,0,1-5.64-5.13,13.21,13.21,0,0,1-2-7.09h10.65a6.74,6.74,0,0,0,1.37,4.39c.85,1,2.26,1.47,4.21,1.47Q638,124,638,120Z"/><path class="d" d="M657.57,128.55a3.38,3.38,0,0,1,.89-2.4,3.17,3.17,0,0,1,2.47-1,3.25,3.25,0,0,1,2.5,1,3.4,3.4,0,0,1,.91,2.4,3.12,3.12,0,0,1-.91,2.29,3.37,3.37,0,0,1-2.5.91,3.28,3.28,0,0,1-2.47-.91A3.11,3.11,0,0,1,657.57,128.55Z"/><path class="d" d="M676.89,76.23a3.54,3.54,0,0,1,.76-2.3,2.57,2.57,0,0,1,2.13-1,2.62,2.62,0,0,1,2.16,1,3.5,3.5,0,0,1,.78,2.3,3.42,3.42,0,0,1-.78,2.27,2.64,2.64,0,0,1-2.16.93,2.58,2.58,0,0,1-2.13-.93A3.46,3.46,0,0,1,676.89,76.23ZM682,131.44h-4.43V88.58H682Z"/><path class="d" d="M692.46,107.83q0-9.27,4.2-14.65a14.94,14.94,0,0,1,22.91-.08q4.17,5.31,4.22,14.61v4.56q0,9.42-4.22,14.69a15,15,0,0,1-22.76.12q-4.18-5.14-4.35-14.18Zm4.43,4.42q0,7.4,3,11.63a10.37,10.37,0,0,0,16.6.15q2.87-4.07,2.91-11.67v-4.55q0-7.4-3-11.65a10.11,10.11,0,0,0-16.4-.1q-3,4.16-3.09,11.44Z"/></svg>