<svg xmlns="http://www.w3.org/2000/svg" xmlns:xlink="http://www.w3.org/1999/xlink" viewBox="0 0 373.39 57.34"><defs><style>.a{fill:#414042;}.b{fill:url(#a);}.c{fill:url(#b);}.d{fill:url(#c);}</style><radialGradient id="a" cx="41.77" cy="40.25" r="17.82" gradientUnits="userSpaceOnUse"><stop offset="0" stop-color="#e5e2df"/><stop offset="0.06" stop-color="#d6d4d3"/><stop offset="0.18" stop-color="#afb1b3"/><stop offset="0.2" stop-color="#a7a9ac"/><stop offset="0.32" stop-color="#999a9d"/><stop offset="0.56" stop-color="#747476"/><stop offset="0.89" stop-color="#393638"/><stop offset="1" stop-color="#231f20"/></radialGradient><radialGradient id="b" cx="29.89" cy="22.61" r="19.49" xlink:href="#a"/><radialGradient id="c" cx="21.05" cy="40.59" r="19.27" xlink:href="#a"/></defs><path class="a" d="M77.06,10.58V18h5v2.69h-5V40a7,7,0,0,0,.72,3.56,2.54,2.54,0,0,0,2.37,1.16,12.34,12.34,0,0,0,2.15-.26l.08,2.68a7.28,7.28,0,0,1-2.93.46q-5.24,0-5.37-7.2V20.68H69.6V18h4.48V10.58Z" transform="translate(0 -1.44)"/><path class="a" d="M91.51,22.56a10.78,10.78,0,0,1,3.27-3.72,7.68,7.68,0,0,1,4.52-1.38q7.61,0,7.79,10.12V47.05h-3V27.9c0-2.59-.48-4.51-1.37-5.74a4.87,4.87,0,0,0-4.22-1.86,6,6,0,0,0-4.2,1.76,11,11,0,0,0-2.84,4.82V47.05h-3V5.8h3Z" transform="translate(0 -1.44)"/><path class="a" d="M126.37,20.79a10.66,10.66,0,0,0-1.88-.19,5.6,5.6,0,0,0-4.15,1.69A9.6,9.6,0,0,0,118,27V47.05h-3V18h2.93l0,4.35c1.42-3.26,3.64-4.88,6.66-4.88a3.76,3.76,0,0,1,1.8.34Z" transform="translate(0 -1.44)"/><path class="a" d="M141.2,47.59a10,10,0,0,1-8-3.36q-2.91-3.36-3-9.56V31.13q0-6.4,2.79-10a9.18,9.18,0,0,1,7.69-3.63,8.74,8.74,0,0,1,7.21,3.08c1.65,2.06,2.5,5.21,2.53,9.46v2.79H133.17v1.64q0,5,2.13,7.71a7.24,7.24,0,0,0,6,2.71,8.71,8.71,0,0,0,7-3.14l1.55,2C148,46.29,145.06,47.59,141.2,47.59Zm-.51-27.34a6.43,6.43,0,0,0-5.42,2.48q-1.89,2.49-2.08,7.27h14.26v-.78Q147.24,20.25,140.69,20.25Z" transform="translate(0 -1.44)"/><path class="a" d="M166.36,47.59a10,10,0,0,1-8-3.36q-2.9-3.36-3-9.56V31.13q0-6.4,2.8-10a9.15,9.15,0,0,1,7.68-3.63,8.74,8.74,0,0,1,7.21,3.08q2.48,3.09,2.54,9.46v2.79H158.33v1.64q0,5,2.13,7.71a7.27,7.27,0,0,0,6,2.71,8.68,8.68,0,0,0,7-3.14l1.56,2Q172.16,47.59,166.36,47.59Zm-.51-27.34a6.4,6.4,0,0,0-5.41,2.48q-1.91,2.49-2.08,7.27h14.26v-.78Q172.4,20.25,165.85,20.25Z" transform="translate(0 -1.44)"/><path class="a" d="M187.87,18l.22,2.69a8.16,8.16,0,0,1,6.74-3.22A6.26,6.26,0,0,1,201,21.38a7.93,7.93,0,0,1,7.11-3.92q7.64,0,7.82,10.55v19h-7.6V28.49a7,7,0,0,0-.7-3.6,2.61,2.61,0,0,0-2.36-1.07c-1.42,0-2.47.87-3.17,2.61l0,.91V47.05h-7.6V28.55a7.25,7.25,0,0,0-.67-3.61,2.56,2.56,0,0,0-2.39-1.12,3.49,3.49,0,0,0-3.12,2.12V47.05h-7.6V18Z" transform="translate(0 -1.44)"/><path class="a" d="M220.63,31.58q0-6.6,3.12-10.36a11.82,11.82,0,0,1,17.29,0q3.12,3.75,3.12,10.42v1.85q0,6.63-3.09,10.37a11.91,11.91,0,0,1-17.33,0q-3.11-3.75-3.11-10.4Zm7.63,1.91q0,7.78,4.16,7.79,3.84,0,4.14-6.5l0-3.2a12.12,12.12,0,0,0-1.11-5.89,3.42,3.42,0,0,0-3.11-1.92,3.34,3.34,0,0,0-3,1.92,12.27,12.27,0,0,0-1.09,5.89Z" transform="translate(0 -1.44)"/><path class="a" d="M255.84,18l.22,2.88a8,8,0,0,1,6.74-3.41q7.49,0,7.7,10.5V47.05h-7.62V28.52a6.66,6.66,0,0,0-.74-3.58,2.86,2.86,0,0,0-2.59-1.12,3.56,3.56,0,0,0-3.23,2.12V47.05H248.7V18Z" transform="translate(0 -1.44)"/><path class="a" d="M285.6,35.85l-2,2.28v8.92H276V5.8h7.6V28.09l.94-1.4,5.26-8.7h9.05l-8.43,12,9.24,17.08h-8.71Z" transform="translate(0 -1.44)"/><path class="a" d="M314,47.59q-5.85,0-9.13-3.49t-3.28-10V31.8q0-6.89,3-10.61t8.62-3.73c3.65,0,6.4,1.16,8.25,3.5s2.78,5.78,2.82,10.36v3.73H309.18a7.88,7.88,0,0,0,1.42,4.73,4.8,4.8,0,0,0,3.89,1.5,8.54,8.54,0,0,0,6.37-2.61l3,4.59a9.72,9.72,0,0,1-4.06,3.13A13.83,13.83,0,0,1,314,47.59Zm-4.78-17.83h7.6v-.7a8.12,8.12,0,0,0-.86-3.95,3,3,0,0,0-2.79-1.34,3.16,3.16,0,0,0-2.89,1.42A9.84,9.84,0,0,0,309.23,29.76Z" transform="translate(0 -1.44)"/><path class="a" d="M337.91,34.4,341.78,18h8.11L340.33,51.4q-2.15,7.4-8.09,7.39a11.22,11.22,0,0,1-3.11-.51V52.34l.89,0a4.34,4.34,0,0,0,2.67-.69A4.24,4.24,0,0,0,334,49.31l.6-2L326.26,18h8.16Z" transform="translate(0 -1.44)"/><path class="a" d="M366,39.26a2.38,2.38,0,0,0-.92-1.78A18.23,18.23,0,0,0,361,35.26q-4.69-1.9-6.46-3.95a7.5,7.5,0,0,1-1.75-5.07,8.11,8.11,0,0,1,2.75-6.3,10.43,10.43,0,0,1,7.29-2.48,11.29,11.29,0,0,1,7.65,2.47,8.29,8.29,0,0,1,2.88,6.63h-7.6q0-3.54-3-3.54a2.72,2.72,0,0,0-2,.75,2.77,2.77,0,0,0-.78,2.09,2.18,2.18,0,0,0,.86,1.71,19.17,19.17,0,0,0,4,2.11,16.77,16.77,0,0,1,6.57,3.82A7.82,7.82,0,0,1,373.39,39a7.64,7.64,0,0,1-2.93,6.25,11.82,11.82,0,0,1-7.68,2.37,12.26,12.26,0,0,1-5.64-1.25,9.48,9.48,0,0,1-3.83-3.48,9,9,0,0,1-1.38-4.81h7.22a4.67,4.67,0,0,0,.93,3,3.64,3.64,0,0,0,2.86,1C365,42,366,41.11,366,39.26Z" transform="translate(0 -1.44)"/><path class="b" d="M59.77,40.29a17.47,17.47,0,0,1-2.39,8.78,17.66,17.66,0,0,1-27,4.4c-.17-.16-.35-.31-.51-.48a18.18,18.18,0,0,0,3-3.92L36,43.78a7.06,7.06,0,0,0,12.22,0,7.06,7.06,0,0,0-6.11-10.59H29.89L23.78,22.61H42.11a17.88,17.88,0,0,1,4.92.68l.67.22A17.76,17.76,0,0,1,59.77,40.29Z" transform="translate(0 -1.44)"/><path class="c" d="M47.18,22.61c0,.23-.09.46-.15.68a17.88,17.88,0,0,0-4.92-.68H36a7,7,0,0,0,1-3.52,7.06,7.06,0,1,0-13.17,3.52l6.11,10.58L23.78,43.78,17.67,33.19,14.61,27.9a17.73,17.73,0,0,1-1.87-4.61c-.06-.22-.11-.45-.15-.68a16.71,16.71,0,0,1-.36-3.5,17.65,17.65,0,1,1,35,3.5Z" transform="translate(0 -1.44)"/><path class="d" d="M42.11,33.19,36,43.78l-3.06,5.29a18.18,18.18,0,0,1-3,3.92c-.17.17-.35.32-.52.48a17.65,17.65,0,1,1-17.3-30l.67-.22a17.73,17.73,0,0,0,1.87,4.61l3.06,5.29a7.06,7.06,0,1,0,6.11,10.59l6.11-10.59Z" transform="translate(0 -1.44)"/></svg>