<svg xmlns="http://www.w3.org/2000/svg" xmlns:xlink="http://www.w3.org/1999/xlink" viewBox="0 0 303.79 225.47"><defs><style>.a{fill:url(#a);}.b{fill:url(#b);}.c{fill:url(#c);}.d{fill:#414042;}</style><radialGradient id="a" cx="186.54" cy="108.25" r="49.71" gradientUnits="userSpaceOnUse"><stop offset="0.3" stop-color="#f7941d"/><stop offset="0.33" stop-color="#f48e1e"/><stop offset="0.54" stop-color="#dd5e24"/><stop offset="0.74" stop-color="#cc3b29"/><stop offset="0.9" stop-color="#c2262c"/><stop offset="1" stop-color="#be1e2d"/></radialGradient><radialGradient id="b" cx="153.38" cy="59.05" r="54.38" xlink:href="#a"/><radialGradient id="c" cx="128.73" cy="109.21" r="53.75" xlink:href="#a"/></defs><path class="a" d="M236.74,108.36a48.82,48.82,0,0,1-6.65,24.5c-16.19,28-53.05,32.09-75.27,12.27-.49-.43-1-.86-1.44-1.31a50.53,50.53,0,0,0,8.51-11l8.53-14.75a19.68,19.68,0,1,0,17.05-29.53H153.38L136.33,59h51.14A49.58,49.58,0,0,1,201.21,61c.62.18,1.24.39,1.86.6A49.53,49.53,0,0,1,236.74,108.36Z" transform="translate(-0.99)"/><path class="b" d="M201.62,59c-.13.64-.26,1.28-.41,1.92A49.58,49.58,0,0,0,187.47,59H170.42a19.36,19.36,0,0,0,2.67-9.8A19.69,19.69,0,1,0,136.33,59l17,29.54-17,29.53-17-29.53-8.53-14.76A49.66,49.66,0,0,1,105.55,61c-.17-.64-.3-1.28-.43-1.92a47.7,47.7,0,0,1-1-9.76C104.12,23.59,124.65,0,153.38,0,185.72,0,207.68,29.89,201.62,59Z" transform="translate(-0.99)"/><path class="c" d="M187.47,88.58l-17.05,29.53-8.53,14.75a50.53,50.53,0,0,1-8.51,11c-.47.45-1,.88-1.45,1.31a49.26,49.26,0,0,1-75.26-12.27c-16.18-28-1.27-62,27-71.3.62-.21,1.24-.42,1.88-.6a49.66,49.66,0,0,0,5.21,12.86l8.53,14.76a19.69,19.69,0,1,0,17,29.53l17-29.53Z" transform="translate(-0.99)"/><path class="d" d="M8.46,177.26v7.41h5v2.69h-5v19.31a7,7,0,0,0,.71,3.55,2.57,2.57,0,0,0,2.38,1.17,12.69,12.69,0,0,0,2.15-.27l.08,2.69a7.5,7.5,0,0,1-2.93.46q-5.23,0-5.37-7.2V187.36H1v-2.69H5.48v-7.41Z" transform="translate(-0.99)"/><path class="d" d="M22.91,189.24a10.76,10.76,0,0,1,3.26-3.72,7.74,7.74,0,0,1,4.53-1.39q7.59,0,7.78,10.13v19.47H35.53V194.58c0-2.6-.47-4.51-1.37-5.75A4.87,4.87,0,0,0,29.94,187a6,6,0,0,0-4.2,1.76,11,11,0,0,0-2.83,4.82v20.17h-3V172.48h3Z" transform="translate(-0.99)"/><path class="d" d="M57.77,187.46a11.68,11.68,0,0,0-1.88-.18A5.6,5.6,0,0,0,51.74,189a9.6,9.6,0,0,0-2.38,4.7v20.06h-3V184.67h2.93l0,4.35q2.12-4.89,6.66-4.89a3.75,3.75,0,0,1,1.8.35Z" transform="translate(-0.99)"/><path class="d" d="M72.59,214.27a10,10,0,0,1-8-3.36q-2.89-3.36-3-9.56V197.8q0-6.39,2.79-10a9.16,9.16,0,0,1,7.68-3.64,8.71,8.71,0,0,1,7.21,3.09q2.49,3.09,2.54,9.46v2.79H64.56v1.64q0,5,2.14,7.7a7.22,7.22,0,0,0,6,2.72,8.68,8.68,0,0,0,7-3.14l1.56,2Q78.39,214.27,72.59,214.27Zm-.51-27.34a6.4,6.4,0,0,0-5.41,2.48c-1.26,1.66-2,4.08-2.08,7.27H78.85v-.78Q78.63,186.93,72.08,186.93Z" transform="translate(-0.99)"/><path class="d" d="M97.75,214.27a10.05,10.05,0,0,1-8-3.36q-2.89-3.36-3-9.56V197.8q0-6.39,2.79-10a9.16,9.16,0,0,1,7.68-3.64,8.7,8.7,0,0,1,7.21,3.09q2.49,3.09,2.54,9.46v2.79H89.72v1.64c0,3.33.72,5.9,2.14,7.7a7.22,7.22,0,0,0,6,2.72,8.68,8.68,0,0,0,7-3.14l1.56,2Q103.55,214.27,97.75,214.27Zm-.51-27.34a6.41,6.41,0,0,0-5.41,2.48q-1.89,2.49-2.08,7.27H104v-.78Q103.8,186.93,97.24,186.93Z" transform="translate(-0.99)"/><path class="d" d="M119.27,184.67l.21,2.69a8.18,8.18,0,0,1,6.74-3.23,6.27,6.27,0,0,1,6.15,3.93,8,8,0,0,1,7.12-3.93q7.62,0,7.81,10.56v19h-7.6V195.17a6.87,6.87,0,0,0-.7-3.6,2.6,2.6,0,0,0-2.36-1.07c-1.41,0-2.47.87-3.17,2.6l.06.92v19.71h-7.6v-18.5a7.3,7.3,0,0,0-.68-3.62,2.55,2.55,0,0,0-2.39-1.11,3.49,3.49,0,0,0-3.11,2.12v21.11h-7.6V184.67Z" transform="translate(-0.99)"/><path class="d" d="M152,198.26q0-6.6,3.11-10.37a11.83,11.83,0,0,1,17.3,0q3.12,3.77,3.11,10.42v1.86q0,6.63-3.09,10.36a11.9,11.9,0,0,1-17.33,0q-3.1-3.75-3.1-10.41Zm7.63,1.91c0,5.19,1.38,7.79,4.16,7.79q3.84,0,4.13-6.5l0-3.2a12.25,12.25,0,0,0-1.1-5.89,3.42,3.42,0,0,0-3.12-1.92,3.35,3.35,0,0,0-3,1.92,12.41,12.41,0,0,0-1.08,5.89Z" transform="translate(-0.99)"/><path class="d" d="M187.24,184.67l.21,2.88a8.06,8.06,0,0,1,6.74-3.42q7.5,0,7.71,10.51v19.09h-7.63V195.2a6.63,6.63,0,0,0-.74-3.59,2.87,2.87,0,0,0-2.59-1.11,3.55,3.55,0,0,0-3.22,2.12v21.11h-7.63V184.67Z" transform="translate(-0.99)"/><path class="d" d="M217,202.53l-2,2.28v8.92h-7.6V172.48H215v22.29l.94-1.4,5.27-8.7h9.05l-8.44,12L231,213.73h-8.7Z" transform="translate(-0.99)"/><path class="d" d="M245.41,214.27q-5.86,0-9.14-3.5t-3.27-10v-2.3q0-6.89,3-10.61t8.62-3.74q5.48,0,8.24,3.5c1.84,2.34,2.79,5.79,2.82,10.37v3.73H240.57a7.88,7.88,0,0,0,1.43,4.73,4.79,4.79,0,0,0,3.89,1.5,8.53,8.53,0,0,0,6.36-2.61l3,4.59a9.83,9.83,0,0,1-4,3.13A13.87,13.87,0,0,1,245.41,214.27Zm-4.78-17.84h7.6v-.69a8.24,8.24,0,0,0-.86-4,3,3,0,0,0-2.8-1.34,3.15,3.15,0,0,0-2.88,1.42A9.7,9.7,0,0,0,240.63,196.43Z" transform="translate(-0.99)"/><path class="d" d="M269.31,201.08l3.86-16.41h8.11l-9.56,33.41q-2.14,7.38-8.08,7.39a11.39,11.39,0,0,1-3.12-.52V219l.89,0a3.54,3.54,0,0,0,4-3.07l.59-2-8.38-29.35h8.17Z" transform="translate(-0.99)"/><path class="d" d="M297.4,205.94a2.39,2.39,0,0,0-.93-1.79,18.6,18.6,0,0,0-4.12-2.21c-3.13-1.27-5.29-2.59-6.46-3.95a7.5,7.5,0,0,1-1.76-5.07,8.11,8.11,0,0,1,2.75-6.3,10.47,10.47,0,0,1,7.29-2.49,11.39,11.39,0,0,1,7.66,2.47,8.33,8.33,0,0,1,2.87,6.64h-7.6c0-2.36-1-3.55-3-3.55a2.71,2.71,0,0,0-2,.76,2.77,2.77,0,0,0-.78,2.09,2.24,2.24,0,0,0,.86,1.71,19,19,0,0,0,4.06,2.1c3.09,1.15,5.28,2.42,6.56,3.83a7.82,7.82,0,0,1,1.92,5.47,7.63,7.63,0,0,1-2.92,6.25,11.87,11.87,0,0,1-7.69,2.37,12.19,12.19,0,0,1-5.63-1.25,9.42,9.42,0,0,1-3.83-3.48,9,9,0,0,1-1.38-4.81h7.22a4.51,4.51,0,0,0,.93,3,3.6,3.6,0,0,0,2.86,1C296.38,208.71,297.4,207.78,297.4,205.94Z" transform="translate(-0.99)"/></svg>