<svg xmlns="http://www.w3.org/2000/svg" xmlns:xlink="http://www.w3.org/1999/xlink" viewBox="0 0 472.88 258.18"><defs><style>.a{fill:#e6e7e8;}.b{fill:url(#a);}.c{fill:url(#b);}.d{fill:url(#c);}</style><radialGradient id="a" cx="271.9" cy="108.25" r="49.71" gradientUnits="userSpaceOnUse"><stop offset="0.2" stop-color="#e5e2df"/><stop offset="0.29" stop-color="#d6d3d1"/><stop offset="0.47" stop-color="#afadab"/><stop offset="0.72" stop-color="#706f6e"/><stop offset="1" stop-color="#222"/></radialGradient><radialGradient id="b" cx="238.74" cy="59.05" r="54.38" xlink:href="#a"/><radialGradient id="c" cx="214.1" cy="109.21" r="53.75" xlink:href="#a"/></defs><path class="a" d="M13.17,183.15v11.54H20.9v4.18H13.17v30a10.87,10.87,0,0,0,1.11,5.54,4,4,0,0,0,3.7,1.82,19.69,19.69,0,0,0,3.34-.42l.13,4.18a11.62,11.62,0,0,1-4.56.71q-8.16,0-8.36-11.2V198.87h-7v-4.18h7V183.15Z" transform="translate(-1.55)"/><path class="a" d="M35.66,201.79A17,17,0,0,1,40.74,196a12,12,0,0,1,7-2.15q11.84,0,12.12,15.76v30.31H55.31V210.11q0-6.06-2.14-9t-6.56-2.88A9.27,9.27,0,0,0,40.07,201a17,17,0,0,0-4.41,7.5v31.4H31V175.71h4.64Z" transform="translate(-1.55)"/><path class="a" d="M89.92,199a17.82,17.82,0,0,0-2.93-.29,8.76,8.76,0,0,0-6.46,2.63,15,15,0,0,0-3.7,7.32v31.23H72.19V194.69h4.56l.08,6.77q3.32-7.61,10.37-7.61a5.81,5.81,0,0,1,2.8.54Z" transform="translate(-1.55)"/><path class="a" d="M113,240.75q-8,0-12.5-5.22T95.9,220.64v-5.51q0-10,4.34-15.62a14.27,14.27,0,0,1,12-5.66q7.35,0,11.22,4.81t4,14.71v4.35H100.49v2.55q0,7.77,3.33,12a11.25,11.25,0,0,0,9.38,4.22A13.51,13.51,0,0,0,124,231.6l2.42,3.09Q122,240.75,113,240.75Zm-.79-42.55a10,10,0,0,0-8.42,3.86q-3,3.87-3.24,11.31h22.19v-1.21Q122.4,198.2,112.2,198.2Z" transform="translate(-1.55)"/><path class="a" d="M152.16,240.75q-8,0-12.5-5.22t-4.6-14.89v-5.51q0-10,4.35-15.62a14.27,14.27,0,0,1,12-5.66q7.35,0,11.22,4.81t3.95,14.71v4.35H139.66v2.55q0,7.77,3.33,12a11.25,11.25,0,0,0,9.38,4.22,13.51,13.51,0,0,0,10.83-4.89l2.42,3.09Q161.2,240.75,152.16,240.75Zm-.79-42.55a10,10,0,0,0-8.43,3.86q-2.94,3.87-3.23,11.31H161.9v-1.21Q161.57,198.2,151.37,198.2Z" transform="translate(-1.55)"/><path class="a" d="M185.65,194.69l.33,4.18a12.72,12.72,0,0,1,10.49-5,9.76,9.76,0,0,1,9.58,6.1,12.38,12.38,0,0,1,11.08-6.1q11.87,0,12.16,16.43v29.64H217.46V211q0-3.93-1.09-5.6a4,4,0,0,0-3.68-1.67q-3.3,0-4.93,4.05l.08,1.42v30.69H196V211.11c0-2.59-.34-4.46-1-5.62a4,4,0,0,0-3.72-1.73c-2,0-3.65,1.1-4.85,3.3v32.86H174.57V194.69Z" transform="translate(-1.55)"/><path class="a" d="M236.65,215.84q0-10.29,4.85-16.14t13.42-5.85q8.64,0,13.5,5.85t4.85,16.22v2.89q0,10.32-4.81,16.13T255,240.75q-8.7,0-13.52-5.83t-4.83-16.2Zm11.87,3q0,12.12,6.48,12.12,6,0,6.44-10.12l0-5q0-6.19-1.72-9.18a5.34,5.34,0,0,0-4.84-3,5.22,5.22,0,0,0-4.71,3q-1.69,3-1.69,9.18Z" transform="translate(-1.55)"/><path class="a" d="M291.45,194.69l.33,4.47a12.57,12.57,0,0,1,10.5-5.31q11.66,0,12,16.34v29.73H302.4V211.07q0-3.84-1.15-5.58c-.76-1.16-2.11-1.73-4-1.73a5.53,5.53,0,0,0-5,3.3v32.86H280.33V194.69Z" transform="translate(-1.55)"/><path class="a" d="M337.77,222.48,334.59,226v13.88H322.76V175.71h11.83V210.4l1.46-2.17,8.2-13.54h14.08l-13.12,18.64,14.38,26.59H346Z" transform="translate(-1.55)"/><path class="a" d="M382,240.75q-9.12,0-14.22-5.43t-5.1-15.55v-3.6q0-10.69,4.68-16.51t13.42-5.81q8.54,0,12.84,5.45T398,215.43v5.8H374.47c.17,3.36.91,5.81,2.22,7.37s3.33,2.33,6.06,2.33a13.29,13.29,0,0,0,9.91-4.06l4.63,7.15a15.18,15.18,0,0,1-6.31,4.87A21.65,21.65,0,0,1,382,240.75ZM374.55,213h11.83v-1.08a12.68,12.68,0,0,0-1.33-6.15,4.67,4.67,0,0,0-4.35-2.09,4.91,4.91,0,0,0-4.49,2.22C375.27,207.37,374.72,209.73,374.55,213Z" transform="translate(-1.55)"/><path class="a" d="M419.2,220.23l6-25.54h12.62l-14.88,52q-3.34,11.49-12.58,11.49a17.48,17.48,0,0,1-4.85-.79v-9.24l1.38,0a6.8,6.8,0,0,0,4.16-1.06,6.69,6.69,0,0,0,2.11-3.7l.92-3.05-13-45.69h12.71Z" transform="translate(-1.55)"/><path class="a" d="M462.93,227.79a3.68,3.68,0,0,0-1.45-2.78,28.52,28.52,0,0,0-6.41-3.45q-7.32-3-10.06-6.14a11.7,11.7,0,0,1-2.73-7.9,12.59,12.59,0,0,1,4.28-9.8q4.29-3.87,11.35-3.87,7.44,0,11.91,3.85A12.89,12.89,0,0,1,474.3,208H462.47c0-3.68-1.54-5.52-4.6-5.52a4.28,4.28,0,0,0-3.1,1.17,4.35,4.35,0,0,0-1.21,3.26,3.44,3.44,0,0,0,1.34,2.66,29.76,29.76,0,0,0,6.31,3.28q7.23,2.67,10.22,6a12.13,12.13,0,0,1,3,8.5,11.91,11.91,0,0,1-4.55,9.74q-4.56,3.69-12,3.68a19.11,19.11,0,0,1-8.78-1.94,14.75,14.75,0,0,1-6-5.42,14,14,0,0,1-2.15-7.48h11.25a7.11,7.11,0,0,0,1.44,4.64c.9,1,2.39,1.55,4.45,1.55Q462.93,232.1,462.93,227.79Z" transform="translate(-1.55)"/><path class="b" d="M322.11,108.36a48.74,48.74,0,0,1-6.66,24.5c-16.18,28-53,32.09-75.26,12.27-.49-.43-1-.86-1.45-1.31a50.26,50.26,0,0,0,8.52-11l8.53-14.75a19.7,19.7,0,0,0,34.09,0,19.69,19.69,0,0,0-17.05-29.53H238.74L221.7,59h51.13A49.65,49.65,0,0,1,286.58,61c.61.18,1.23.39,1.85.6A49.54,49.54,0,0,1,322.11,108.36Z" transform="translate(-1.55)"/><path class="c" d="M287,59c-.13.64-.26,1.28-.41,1.92A49.65,49.65,0,0,0,272.83,59h-17a19.34,19.34,0,0,0,2.66-9.8A19.69,19.69,0,1,0,221.7,59l17,29.54-17,29.53-17-29.53-8.54-14.76A50.37,50.37,0,0,1,190.91,61c-.17-.64-.3-1.28-.43-1.92a48.39,48.39,0,0,1-1-9.76C189.49,23.59,210,0,238.74,0,271.09,0,293.05,29.89,287,59Z" transform="translate(-1.55)"/><path class="d" d="M272.83,88.58l-17,29.53-8.53,14.75a50.26,50.26,0,0,1-8.52,11c-.46.45-1,.88-1.44,1.31A49.26,49.26,0,0,1,162,132.86c-16.19-28-1.28-62,27-71.3.62-.21,1.23-.42,1.87-.6a50.37,50.37,0,0,0,5.21,12.86l8.54,14.76a19.69,19.69,0,1,0,17,29.53l17-29.53Z" transform="translate(-1.55)"/></svg>