<svg xmlns="http://www.w3.org/2000/svg" viewBox="0 0 472.88 82.48"><defs><style>.a{fill:#000222;}</style></defs><path class="a" d="M13.17,16.47V28H20.9v4.18H13.17V62.24a10.87,10.87,0,0,0,1.11,5.54A4,4,0,0,0,18,69.6a19.69,19.69,0,0,0,3.34-.42l.13,4.18a11.44,11.44,0,0,1-4.56.71q-8.16,0-8.36-11.2V32.19h-7V28h7V16.47Z" transform="translate(-1.55 -9.03)"/><path class="a" d="M35.66,35.11a17,17,0,0,1,5.08-5.79,12,12,0,0,1,7-2.15q11.84,0,12.12,15.76V73.24H55.31V43.43q0-6.06-2.14-8.94T46.61,31.6a9.32,9.32,0,0,0-6.54,2.74,17.16,17.16,0,0,0-4.41,7.5v31.4H31V9h4.64Z" transform="translate(-1.55 -9.03)"/><path class="a" d="M89.92,32.36a16.9,16.9,0,0,0-2.93-.3,8.73,8.73,0,0,0-6.46,2.64A14.94,14.94,0,0,0,76.83,42V73.24H72.19V28h4.56l.08,6.77q3.32-7.6,10.37-7.61a5.81,5.81,0,0,1,2.8.54Z" transform="translate(-1.55 -9.03)"/><path class="a" d="M113,74.07q-8,0-12.5-5.22T95.9,54V48.45q0-9.95,4.34-15.61a14.25,14.25,0,0,1,12-5.67q7.35,0,11.22,4.81t4,14.71V51H100.49v2.55q0,7.77,3.33,12a11.25,11.25,0,0,0,9.38,4.22A13.51,13.51,0,0,0,124,64.92L126.45,68Q122,74.07,113,74.07Zm-.79-42.55a10,10,0,0,0-8.42,3.87q-3,3.86-3.24,11.3h22.19V45.48Q122.4,31.52,112.2,31.52Z" transform="translate(-1.55 -9.03)"/><path class="a" d="M152.16,74.07q-8,0-12.5-5.22T135.06,54V48.45q0-9.95,4.35-15.61a14.25,14.25,0,0,1,12-5.67q7.35,0,11.22,4.81t3.95,14.71V51H139.66v2.55q0,7.77,3.33,12a11.25,11.25,0,0,0,9.38,4.22,13.51,13.51,0,0,0,10.83-4.89L165.62,68Q161.2,74.07,152.16,74.07Zm-.79-42.55a10,10,0,0,0-8.43,3.87q-2.94,3.86-3.23,11.3H161.9V45.48Q161.57,31.52,151.37,31.52Z" transform="translate(-1.55 -9.03)"/><path class="a" d="M185.65,28l.33,4.18a12.72,12.72,0,0,1,10.49-5,9.78,9.78,0,0,1,9.58,6.1,12.4,12.4,0,0,1,11.08-6.1q11.87,0,12.16,16.43V73.24H217.46V44.35c0-2.62-.36-4.48-1.09-5.6a4.06,4.06,0,0,0-3.68-1.67q-3.3,0-4.93,4.05l.08,1.42V73.24H196V44.44c0-2.6-.34-4.47-1-5.63a4,4,0,0,0-3.72-1.73c-2,0-3.65,1.1-4.85,3.3V73.24H174.57V28Z" transform="translate(-1.55 -9.03)"/><path class="a" d="M236.65,49.16q0-10.29,4.85-16.14t13.42-5.85q8.64,0,13.5,5.85t4.85,16.22v2.89q0,10.32-4.81,16.13T255,74.07q-8.7,0-13.52-5.83T236.65,52Zm11.87,3q0,12.12,6.48,12.12,6,0,6.44-10.12l0-5q0-6.18-1.72-9.18a5.33,5.33,0,0,0-4.84-3,5.21,5.21,0,0,0-4.71,3q-1.69,3-1.69,9.18Z" transform="translate(-1.55 -9.03)"/><path class="a" d="M291.45,28l.33,4.47a12.57,12.57,0,0,1,10.5-5.31q11.66,0,12,16.35V73.24H302.4V44.39q0-3.84-1.15-5.58c-.76-1.15-2.11-1.73-4-1.73a5.53,5.53,0,0,0-5,3.3V73.24H280.33V28Z" transform="translate(-1.55 -9.03)"/><path class="a" d="M337.77,55.81l-3.18,3.55V73.24H322.76V9h11.83v34.7l1.46-2.18L344.25,28h14.08L345.21,46.65l14.38,26.59H346Z" transform="translate(-1.55 -9.03)"/><path class="a" d="M382,74.07q-9.12,0-14.22-5.43t-5.1-15.55v-3.6q0-10.69,4.68-16.51t13.42-5.81q8.54,0,12.84,5.45T398,48.75v5.8H374.47q.25,5,2.22,7.37t6.06,2.33a13.32,13.32,0,0,0,9.91-4l4.63,7.14A15.18,15.18,0,0,1,391,72.21,21.65,21.65,0,0,1,382,74.07Zm-7.45-27.75h11.83V45.23a12.7,12.7,0,0,0-1.33-6.15A4.66,4.66,0,0,0,380.7,37a4.9,4.9,0,0,0-4.49,2.21Q374.8,41.43,374.55,46.32Z" transform="translate(-1.55 -9.03)"/><path class="a" d="M419.2,53.55l6-25.54h12.62L423,80q-3.34,11.49-12.58,11.5a17.53,17.53,0,0,1-4.85-.8V81.47l1.38,0a6.8,6.8,0,0,0,4.16-1.07,6.66,6.66,0,0,0,2.11-3.7l.92-3L401.06,28h12.71Z" transform="translate(-1.55 -9.03)"/><path class="a" d="M462.93,61.12a3.67,3.67,0,0,0-1.45-2.78,28.52,28.52,0,0,0-6.41-3.45q-7.32-3-10.06-6.15a11.7,11.7,0,0,1-2.73-7.9,12.61,12.61,0,0,1,4.28-9.8q4.29-3.87,11.35-3.87,7.44,0,11.91,3.85a12.89,12.89,0,0,1,4.48,10.32H462.47c0-3.68-1.54-5.52-4.6-5.52a4.25,4.25,0,0,0-3.1,1.18,4.34,4.34,0,0,0-1.21,3.26,3.43,3.43,0,0,0,1.34,2.65,29.29,29.29,0,0,0,6.31,3.28q7.23,2.69,10.22,6a12.16,12.16,0,0,1,3,8.51,11.92,11.92,0,0,1-4.55,9.74q-4.56,3.67-12,3.67a19,19,0,0,1-8.78-1.94,14.8,14.8,0,0,1-6-5.41A14,14,0,0,1,441,59.23h11.25a7.09,7.09,0,0,0,1.44,4.64c.9,1,2.39,1.55,4.45,1.55Q462.93,65.42,462.93,61.12Z" transform="translate(-1.55 -9.03)"/></svg>